HIERARCHY
ROOT Hips
{
	OFFSET 0.000000 0.000000 0.000000
	CHANNELS 6 Xposition Yposition Zposition Xrotation Yrotation Zrotation
	JOINT LeftUpLeg_virtual
	{
		OFFSET 0.000000 0.000000 0.000000
		CHANNELS 3 Xrotation Yrotation Zrotation
		JOINT LeftUpLeg
		{
			OFFSET 10.205400 -3.823500 0.155100
			CHANNELS 3 Xrotation Yrotation Zrotation
			JOINT LeftLeg
			{
				OFFSET 0.708757 -12.982077 0.567790
				CHANNELS 3 Xrotation Yrotation Zrotation
				JOINT LeftFoot
				{
					OFFSET -0.708756 -10.717838 -2.184338
					CHANNELS 3 Xrotation Yrotation Zrotation
					JOINT LeftToeBase
					{
						OFFSET 0.108149 -7.191104 7.560241
						CHANNELS 3 Xrotation Yrotation Zrotation
						JOINT LeftToe_End
						{
							OFFSET 0.070230 0.081724 4.490308
							CHANNELS 3 Xrotation Yrotation Zrotation
							End Site
							{
								OFFSET 0 0 0
							}
						}
					}
				}
			}
		}
	}
	JOINT RightUpLeg_virtual
	{
		OFFSET 0.000000 0.000000 0.000000
		CHANNELS 3 Xrotation Yrotation Zrotation
		JOINT RightUpLeg
		{
			OFFSET -10.205400 -3.823500 0.005500
			CHANNELS 3 Xrotation Yrotation Zrotation
			JOINT RightLeg
			{
				OFFSET -0.708756 -12.982134 0.610632
				CHANNELS 3 Xrotation Yrotation Zrotation
				JOINT RightFoot
				{
					OFFSET 0.708754 -10.717769 -1.945823
					CHANNELS 3 Xrotation Yrotation Zrotation
					JOINT RightToeBase
					{
						OFFSET -0.108140 -7.191069 7.372968
						CHANNELS 3 Xrotation Yrotation Zrotation
						JOINT RightToe_End
						{
							OFFSET -0.070227 0.081735 4.479403
							CHANNELS 3 Xrotation Yrotation Zrotation
							End Site
							{
								OFFSET 0 0 0
							}
						}
					}
				}
			}
		}
	}
	JOINT Spine_virtual
	{
		OFFSET 0.000000 0.000000 0.000000
		CHANNELS 3 Xrotation Yrotation Zrotation
		JOINT Spine
		{
			OFFSET 0.000000 6.876099 0.125700
			CHANNELS 3 Xrotation Yrotation Zrotation
			JOINT Spine1
			{
				OFFSET 0.000000 5.730043 0.104720
				CHANNELS 3 Xrotation Yrotation Zrotation
				JOINT Spine1_split
				{
					OFFSET 0.000000 5.730043 0.104720
					CHANNELS 3 Xrotation Yrotation Zrotation
					JOINT Spine2
					{
						OFFSET 0.000000 5.730043 0.104720
						CHANNELS 3 Xrotation Yrotation Zrotation
						JOINT Neck_virtual
						{
							OFFSET 0.000000 0.000000 0.000000
							CHANNELS 3 Xrotation Yrotation Zrotation
							JOINT Neck
							{
								OFFSET 0.000000 10.314075 0.188496
								CHANNELS 3 Xrotation Yrotation Zrotation
								JOINT Head
								{
									OFFSET 0.000000 7.643700 -2.377400
									CHANNELS 3 Xrotation Yrotation Zrotation
									JOINT HeadTop_End
									{
										OFFSET 0.000000 43.788605 -13.619600
										CHANNELS 3 Xrotation Yrotation Zrotation
										End Site
										{
											OFFSET 0 0 0
										}
									}
								}
							}
						}
						JOINT LeftShoulder_virtual
						{
							OFFSET 0.000000 0.000000 0.000000
							CHANNELS 3 Xrotation Yrotation Zrotation
							JOINT LeftShoulder
							{
								OFFSET 2.196100 4.412489 0.087492
								CHANNELS 3 Xrotation Yrotation Zrotation
								JOINT LeftShoulder_split
								{
									OFFSET 2.196100 4.412489 0.087492
									CHANNELS 3 Xrotation Yrotation Zrotation
									JOINT LeftArm
									{
										OFFSET 8.771219 -2.981674 -0.026999
										CHANNELS 3 Xrotation Yrotation Zrotation
										JOINT LeftForeArm
										{
											OFFSET 8.512804 0.000000 -0.000000
											CHANNELS 3 Xrotation Yrotation Zrotation
											JOINT LeftHand
											{
												OFFSET 18.484802 0.000000 -0.000000
												CHANNELS 3 Xrotation Yrotation Zrotation
												End Site
												{
													OFFSET 0 0 0
												}
											}
										}
									}
								}
							}
						}
						JOINT RightShoulder_virtual
						{
							OFFSET 0.000000 0.000000 0.000000
							CHANNELS 3 Xrotation Yrotation Zrotation
							JOINT RightShoulder
							{
								OFFSET -2.196100 4.412496 0.070690
								CHANNELS 3 Xrotation Yrotation Zrotation
								JOINT RightShoulder_split
								{
									OFFSET -2.196100 4.412496 0.070690
									CHANNELS 3 Xrotation Yrotation Zrotation
									JOINT RightArm
									{
										OFFSET -8.771282 -2.981682 -0.094208
										CHANNELS 3 Xrotation Yrotation Zrotation
										JOINT RightForeArm
										{
											OFFSET -8.494598 0.000000 0.000000
											CHANNELS 3 Xrotation Yrotation Zrotation
											JOINT RightHand
											{
												OFFSET -18.483803 0.000000 0.000001
												CHANNELS 3 Xrotation Yrotation Zrotation
												End Site
												{
													OFFSET 0 0 0
												}
											}
										}
									}
								}
							}
						}
					}
				}
			}
		}
	}
}
MOTION
Frames: 8
Frame Time: 0.03333333
1.380932 31.950329 0.516918 0.000000 0.000000 0.000000 5.325094 -6.742903 -0.427955 -34.168578 8.414758 20.322487 70.846704 3.279106 -1.900843 -6.638462 11.860587 -15.800796 -30.670421 0.000045 0.000018 0.000000 0.000000 0.000000 5.325094 -6.742903 -0.427955 -30.141263 -5.237373 3.093535 47.464760 -1.128675 -0.945245 -24.910723 -5.916808 -2.874514 6.842158 -0.000021 -0.004218 0.000000 0.000000 0.000000 5.325094 -6.742903 -0.427955 9.204521 3.200569 4.361670 6.474931 1.246103 1.050138 0.000000 0.000000 0.000000 0.000000 0.000000 0.000000 6.471428 1.202600 1.091238 2.140430 -0.614932 -1.384967 -3.656094 -2.727634 0.126232 0.000000 0.000000 0.000000 6.471428 1.202600 1.091238 1.724419 -9.915038 -14.935021 0.000000 0.000000 0.000000 -25.063147 2.043307 -69.542186 0.000011 -31.031284 -0.000000 0.000000 0.000000 0.000000 6.471428 1.202600 1.091238 4.830922 17.858064 5.566065 0.000000 0.000000 0.000000 -15.198233 0.576466 66.754997 -0.000007 21.881882 0.000015 0.000000 0.000000 0.000000 
1.249922 32.038609 0.670397 0.000000 0.000000 0.000000 5.371683 -6.725920 0.091186 -35.336390 9.886041 20.001842 69.469069 4.474436 -2.018869 -6.306816 8.678951 -14.922008 -29.717074 0.000048 0.000026 0.000000 0.000000 0.000000 5.371683 -6.725920 0.091186 -29.837712 -5.137672 2.672956 47.467233 -1.827190 -0.931181 -25.244468 -5.124848 -2.640079 6.694519 0.000001 -0.004172 0.000000 0.000000 0.000000 5.371683 -6.725920 0.091186 9.173435 3.227983 4.371873 6.458230 1.270574 1.050139 0.000000 0.000000 0.000000 0.000000 0.000000 0.000000 6.454844 1.219981 1.086651 2.140431 -0.658715 -1.366251 -3.626630 -2.970674 -0.373948 0.000000 0.000000 0.000000 6.454844 1.219981 1.086651 1.707817 -9.871305 -14.933486 0.000000 0.000000 0.000000 -24.720377 1.875878 -69.543395 -0.000016 -31.071818 -0.000036 0.000000 0.000000 0.000000 6.454844 1.219981 1.086651 4.783130 17.784921 5.634562 0.000000 0.000000 0.000000 -15.255308 -0.756976 66.514493 -0.000013 21.916158 -0.000001 0.000000 0.000000 0.000000 
0.990837 32.163940 0.970266 0.000000 0.000000 0.000000 5.435770 -6.611968 0.836813 -36.737323 10.935503 17.401375 66.533740 5.336392 -2.076593 -6.604358 5.250620 -12.879898 -27.141565 0.000024 0.000016 0.000000 0.000000 0.000000 5.435770 -6.611968 0.836813 -28.978611 -5.003590 2.310174 47.456636 -2.726622 -0.934591 -26.230442 -4.233986 -2.514612 6.725778 -0.000011 -0.004227 0.000000 0.000000 0.000000 5.435770 -6.611968 0.836813 9.083805 3.307062 4.376808 6.408335 1.343091 1.038724 0.000000 0.000000 0.000000 0.000000 0.000000 0.000000 6.405872 1.274518 1.063854 2.140438 -0.766235 -1.362488 -3.498519 -3.486841 -1.029327 0.000000 0.000000 0.000000 6.405872 1.274518 1.063854 1.665933 -9.745088 -14.916935 0.000000 0.000000 0.000000 -24.239271 1.601059 -69.677164 0.000005 -31.120872 0.000004 0.000000 0.000000 0.000000 6.405872 1.274518 1.063854 4.647977 17.576334 5.828746 0.000000 0.000000 0.000000 -15.030448 -2.293392 66.012986 0.000005 22.078580 -0.000008 0.000000 0.000000 0.000000 
0.779691 32.289410 1.435738 0.000000 0.000000 0.000000 5.505433 -6.453137 1.703138 -38.354637 11.826745 14.711807 61.744664 5.910158 -2.082804 -6.476898 2.771883 -9.724461 -23.370756 0.000026 0.000014 0.000000 0.000000 0.000000 5.505433 -6.453137 1.703138 -27.774249 -4.716286 1.657527 47.591419 -3.591310 -0.922593 -27.707491 -3.441642 -2.140846 6.769453 -0.000013 -0.004321 0.000000 0.000000 0.000000 5.505433 -6.453137 1.703138 8.940524 3.429636 4.366221 6.327506 1.454022 1.012416 0.000000 0.000000 0.000000 0.000000 0.000000 0.000000 6.326479 1.357849 1.019106 2.140428 -0.918787 -1.370703 -3.275310 -4.197979 -1.746189 0.000000 0.000000 0.000000 6.326479 1.357849 1.019106 1.601737 -9.544017 -14.888619 0.000000 0.000000 0.000000 -23.625392 1.258210 -69.819307 0.000022 -31.187532 0.000008 0.000000 0.000000 0.000000 6.326479 1.357849 1.019106 4.438764 17.247906 6.131063 0.000000 0.000000 0.000000 -14.574164 -3.934994 65.353934 -0.000002 22.347059 0.000006 0.000000 0.000000 0.000000 
0.610332 32.396435 2.068563 0.000000 0.000000 0.000000 5.569802 -6.292975 2.578314 -40.362969 12.457064 11.836079 54.971227 5.793113 -1.967110 -4.541704 1.240271 -5.322787 -18.831532 0.000023 0.000005 0.000000 0.000000 0.000000 5.569802 -6.292975 2.578314 -26.135509 -4.351817 0.844702 47.744815 -4.371015 -0.896515 -29.617100 -2.779908 -1.560890 6.834845 -0.000017 -0.004419 0.000000 0.000000 0.000000 5.569802 -6.292975 2.578314 8.748152 3.583814 4.334011 6.217599 1.595875 0.971857 0.000000 0.000000 0.000000 0.000000 0.000000 0.000000 6.218343 1.466277 0.954856 2.140430 -1.097669 -1.390300 -2.956999 -5.025184 -2.430384 0.000000 0.000000 0.000000 6.218343 1.466277 0.954856 1.519695 -9.275792 -14.847875 0.000000 0.000000 0.000000 -22.884200 0.887908 -69.845187 0.000015 -31.267383 0.000024 0.000000 0.000000 0.000000 6.218343 1.466277 0.954856 4.169628 16.815111 6.523468 0.000000 0.000000 0.000000 -13.924124 -5.585385 64.641265 -0.000016 22.704510 0.000004 0.000000 0.000000 0.000000 
0.483556 32.454666 2.859039 0.000000 0.000000 0.000000 5.619814 -6.160826 3.338278 -42.331337 12.144355 9.815977 45.525567 4.820153 -1.909568 0.837384 0.312959 -3.831605 -13.950696 0.000016 0.000004 0.000000 0.000000 0.000000 5.619814 -6.160826 3.338278 -24.056881 -3.991227 0.006429 47.854932 -5.019378 -0.855886 -31.873354 -2.283022 -0.830250 6.888116 -0.000015 -0.004520 0.000000 0.000000 0.000000 5.619814 -6.160826 3.338278 8.510580 3.762618 4.284218 6.080535 1.760887 0.914890 0.000000 0.000000 0.000000 0.000000 0.000000 0.000000 6.083302 1.595059 0.870178 2.140423 -1.284178 -1.419109 -2.539972 -5.888787 -2.987881 0.000000 0.000000 0.000000 6.083302 1.595059 0.870178 1.424255 -8.948061 -14.793877 0.000000 0.000000 0.000000 -22.022946 0.531223 -69.629783 0.000016 -31.355831 0.000004 0.000000 0.000000 0.000000 6.083302 1.595059 0.870178 3.854876 16.293292 6.987722 0.000000 0.000000 0.000000 -13.103463 -7.147940 63.979174 0.000012 23.163174 -0.000003 0.000000 0.000000 0.000000 
0.376684 32.490524 3.588223 0.000000 0.000000 0.000000 5.648324 -6.062849 3.881360 -42.286589 11.175918 8.543433 38.467291 4.727160 -2.050981 0.955735 0.473553 -5.190663 -9.155133 0.000011 0.000004 0.000000 0.000000 0.000000 5.648324 -6.062849 3.881360 -21.972558 -3.746970 -0.619875 47.603372 -5.574446 -0.814882 -33.737125 -1.866511 -0.166261 6.934484 -0.000030 -0.004621 0.000000 0.000000 0.000000 5.648324 -6.062849 3.881360 8.233742 3.963426 4.194729 5.918318 1.941298 0.839359 0.000000 0.000000 0.000000 0.000000 0.000000 0.000000 5.923176 1.739441 0.764142 2.140437 -1.459606 -1.455327 -2.024458 -6.709802 -3.320674 0.000000 0.000000 0.000000 5.923176 1.739441 0.764142 1.319747 -8.568497 -14.725823 0.000000 0.000000 0.000000 -21.052702 0.229609 -69.048117 0.000005 -31.430598 0.000009 0.000000 0.000000 0.000000 5.923176 1.739441 0.764142 3.508412 15.698073 7.506018 0.000000 0.000000 0.000000 -12.122139 -8.524781 63.472320 0.000001 23.782294 0.000008 0.000000 0.000000 0.000000 
0.308436 32.507275 4.344009 0.000000 0.000000 0.000000 5.648074 -6.008921 4.114759 -41.610619 9.942606 7.293781 32.106397 5.787183 -2.276310 -0.242023 0.595799 -4.493322 -4.871704 0.000012 0.000003 0.000000 0.000000 0.000000 5.648074 -6.008921 4.114759 -19.540008 -3.622010 -0.993899 46.738827 -5.987261 -0.769650 -35.282066 -1.550925 0.466658 6.980145 -0.000031 -0.004707 0.000000 0.000000 0.000000 5.648074 -6.008921 4.114759 7.924117 4.161839 4.040167 5.732925 2.129343 0.743104 0.000000 0.000000 0.000000 0.000000 0.000000 0.000000 5.739873 1.894678 0.635825 2.134616 -1.605253 -1.497166 -1.408619 -7.407852 -3.334293 0.000000 0.000000 0.000000 5.739873 1.894678 0.635825 1.210490 -8.144788 -14.643132 0.000000 0.000000 0.000000 -19.990881 0.025139 -67.975634 -0.000010 -31.503821 -0.000009 0.000000 0.000000 0.000000 5.739873 1.894678 0.635825 3.143297 15.045457 8.061023 0.000000 0.000000 0.000000 -10.980887 -9.615673 63.225094 0.000003 24.596375 -0.000019 0.000000 0.000000 0.000000 
